<?xml version="1.0" encoding="UTF-8" standalone="no"?>
<!-- Generator: Adobe Illustrator 13.0.0, SVG Export Plug-In . SVG Version: 6.00 Build 14948)  -->

<svg
   xmlns:dc="http://purl.org/dc/elements/1.1/"
   xmlns:cc="http://creativecommons.org/ns#"
   xmlns:rdf="http://www.w3.org/1999/02/22-rdf-syntax-ns#"
   xmlns:svg="http://www.w3.org/2000/svg"
   xmlns="http://www.w3.org/2000/svg"
   xmlns:sodipodi="http://sodipodi.sourceforge.net/DTD/sodipodi-0.dtd"
   xmlns:inkscape="http://www.inkscape.org/namespaces/inkscape"
   version="1.1"
   x="0px"
   y="0px"
   width="1280px"
   height="720px"
   viewBox="0 0 1280 720"
   enable-background="new 0 0 1280 720"
   xml:space="preserve"
   id="svg80"
   sodipodi:docname="splash.svg"
   inkscape:version="0.92.4 (5da689c313, 2019-01-14)"><metadata
   id="metadata86"><rdf:RDF><cc:Work
       rdf:about=""><dc:format>image/svg+xml</dc:format><dc:type
         rdf:resource="http://purl.org/dc/dcmitype/StillImage" /><dc:title></dc:title></cc:Work></rdf:RDF></metadata><defs
   id="defs84" /><sodipodi:namedview
   pagecolor="#ffffff"
   bordercolor="#666666"
   borderopacity="1"
   objecttolerance="10"
   gridtolerance="10"
   guidetolerance="10"
   inkscape:pageopacity="0"
   inkscape:pageshadow="2"
   inkscape:window-width="1920"
   inkscape:window-height="1001"
   id="namedview82"
   showgrid="false"
   inkscape:pagecheckerboard="true"
   inkscape:zoom="0.5296875"
   inkscape:cx="769.96247"
   inkscape:cy="431.69941"
   inkscape:window-x="-9"
   inkscape:window-y="-9"
   inkscape:window-maximized="1"
   inkscape:current-layer="layer1" />



<path
   style="fill:#000000;stroke-width:0.84804159"
   d=""
   id="path20"
   inkscape:connector-curvature="0" /><g
   inkscape:groupmode="layer"
   id="layer1"
   inkscape:label="Layer 1"><g
     id="g176"
     transform="matrix(0.74658496,0,0,0.74658496,189.58318,-18.399823)"><path
       inkscape:connector-curvature="0"
       id="path130"
       d="m 55.546598,651.97531 c -8.424474,-2.3864 -14.783733,-7.80071 -16.980643,-14.45742 -0.679891,-2.06008 -0.952404,-6.11616 -0.673148,-10.01912 0.374957,-5.24053 1.014745,-7.33002 3.185127,-10.4024 3.310388,-4.68615 9.874696,-9.32079 17.121387,-12.08832 6.94212,-2.65121 25.784356,-3.67058 32.320196,-1.74855 l 4.24779,1.24918 -7.07965,0.56773 c -13.927506,1.11683 -23.402836,6.39267 -27.866432,15.51593 -4.425143,9.04466 -1.963352,17.12415 6.460136,21.2019 8.43932,4.0854 18.055766,1.71071 26.146816,-6.45671 l 5.21249,-5.26169 15.292213,-42.47787 c 29.8994,-83.05294 54.04682,-152.14767 54.04682,-154.64799 0,-1.47073 -2.65672,0.097 -16.48914,9.73032 -13.93582,9.70531 -20.20859,15.76862 -24.53279,23.7136 -2.91769,5.36076 -4.17607,13.34121 -2.43455,15.4396 1.63077,1.96497 6.99092,2.79386 10.39443,1.60739 1.57055,-0.5475 2.85556,-0.74272 2.85556,-0.43381 0,0.3089 -1.55838,2.46344 -3.46307,4.78786 -5.68845,6.942 -17.2482,10.82857 -23.0199,7.73965 -5.1169,-2.73848 -6.09881,-12.14345 -2.14668,-20.56145 5.36476,-11.42688 17.28523,-20.79664 71.10752,-55.89217 15.31564,-9.98675 35.28024,-23.16372 44.36578,-29.28214 16.34831,-11.00934 23.1055,-14.92624 24.07583,-13.95591 0.27539,0.27539 -0.14144,1.73205 -0.92628,3.23702 -3.00772,5.7674 -1.47988,9.88282 10.02555,27.0051 5.8689,8.73403 9.30278,16.22067 9.30278,20.28216 0,1.4207 -1.56127,4.52238 -3.66482,7.28069 -6.25259,8.19879 -28.83497,31.49287 -36.84835,38.00964 -4.19563,3.41205 -7.62842,6.76742 -7.62842,7.45637 0,0.68895 4.18606,4.64264 9.30236,8.78596 20.39559,16.51695 24.82531,25.60819 19.87065,40.78114 -1.08758,3.33059 -6.98518,16.67508 -13.10576,29.65443 -15.73441,33.36651 -17.78673,39.71851 -14.73792,45.61425 l 1.5064,2.91305 -3.06979,0.44016 c -1.68838,0.24209 -8.12994,1.13625 -14.31458,1.98703 -9.88885,1.36034 -28.67826,5.60301 -34.06493,7.69189 -1.1347,0.44003 0.12751,-1.51296 3.1637,-4.89513 4.38254,-4.88192 6.76614,-9.37681 17.99656,-33.93704 16.38864,-35.84097 18.12722,-40.23583 18.71634,-47.31222 0.80776,-9.7026 -3.60581,-15.8847 -19.03014,-26.6556 -7.33149,-5.11961 -9.38497,-5.09911 -11.24675,0.11231 -0.78828,2.20649 -6.60027,17.60472 -12.91555,34.21829 -24.354,64.06788 -29.44976,80.70805 -26.43851,86.33462 0.64528,1.20572 0.57408,1.98993 -0.23599,2.59904 -0.63806,0.47976 -8.16895,3.78102 -16.73533,7.33612 -8.56637,3.55511 -18.33628,7.82953 -21.71091,9.49872 -15.196243,7.51651 -34.452379,10.78318 -45.356402,7.69439 z M 199.51728,480.99839 c 15.29658,-10.12581 21.32096,-16.1603 26.4047,-26.44898 5.56738,-11.26749 6.34936,-20.97751 2.332,-28.95659 -1.81611,-3.60707 -6.51341,-8.07058 -9.77565,-9.28909 -5.40548,-2.01908 -5.74855,-1.98516 -6.84276,0.67662 -0.58649,1.42671 -3.69993,8.54092 -6.91875,15.80936 -6.69488,15.11778 -21.13645,57.10914 -19.64084,57.10914 0.54768,0 7.04626,-4.00521 14.4413,-8.90046 z"
       style="fill:#ffffff;fill-opacity:1;stroke-width:0.9439528" /><path
       inkscape:connector-curvature="0"
       id="path132"
       d="m 262.56082,614.02865 c 1.08932,-5.64754 -7.20002,-24.18604 -15.83858,-35.42181 l -4.00977,-5.21531 2.24982,-2.80829 c 2.7533,-3.43674 13.63856,-27.90228 17.37089,-39.04255 1.50139,-4.48134 3.20306,-11.19812 3.78148,-14.92616 1.3319,-8.58427 0.46572,-10.63574 -4.53691,-10.74523 -3.21267,-0.0703 -2.95272,-0.25659 3.10106,-2.22219 80.72131,-26.20938 76.93215,-25.07863 76.93215,-22.95785 0,0.72814 1.93458,4.34764 4.29906,8.04334 4.20782,6.57688 4.27583,6.80576 3.20524,10.78652 -0.60159,2.23687 -2.7934,8.04663 -4.87069,12.91057 -4.4166,10.34139 -5.64092,18.57 -3.29556,22.14945 l 1.48267,2.26285 -8.19797,3.85769 c -4.50888,2.12173 -15.41921,6.81448 -24.24516,10.42832 -22.24676,9.10909 -26.17048,10.94553 -28.19643,13.19698 -1.73569,1.92889 -1.69781,2.13563 2.22531,12.14566 3.75461,9.58009 5.4271,13.23682 7.37508,16.12493 1.10688,1.64108 16.09323,-1.57615 22.51786,-4.83408 5.38474,-2.7306 7.28776,-4.65701 9.25751,-9.37129 3.22605,-7.72102 0.84165,-14.93857 -5.40323,-16.3555 l -3.05634,-0.69347 3.98288,-1.76199 c 6.55206,-2.89859 12.23502,-3.5914 17.24799,-2.10271 5.48764,1.62966 7.57226,3.86104 8.23698,8.8169 0.81657,6.08797 -1.75807,11.3655 -8.72332,17.88115 -8.81252,8.24368 -15.22651,10.94417 -35.16139,14.80405 -18.17245,3.51863 -24.27331,5.81298 -30.67818,11.53713 -2.19478,1.96151 -4.80234,4.19152 -5.79458,4.95557 -1.70064,1.30952 -1.77277,1.22681 -1.25787,-1.44268 z m 27.22322,-60.06539 c 9.98719,-5.32312 11.43793,-7.23744 18.24196,-24.07103 8.92629,-22.0842 12.00116,-34.58013 9.19871,-37.38258 -0.83193,-0.83193 -3.47214,-0.32793 -10.96043,2.09231 -8.9414,2.88988 -11.74491,4.73642 -7.19106,4.73642 4.3096,0 3.93011,1.83428 -6.13354,29.64667 -5.41958,14.97783 -9.85379,27.39037 -9.85379,27.58343 0,0.76611 1.37971,0.22948 6.69815,-2.60522 z"
       style="fill:#ffffff;fill-opacity:1;stroke-width:0.9439528" /><path
       inkscape:connector-curvature="0"
       id="path134"
       d="m 315.17865,628.8959 c 7.38225,-4.29018 17.55965,-14.17558 22.56114,-21.91385 5.61627,-8.68946 9.26326,-18.24009 26.50617,-69.41358 8.74679,-25.9587 17.85162,-52.6645 20.23295,-59.34621 2.38133,-6.68171 4.32969,-12.42448 4.32969,-12.7617 0,-0.82151 -12.51952,-0.31676 -23.58979,0.95107 -11.62679,1.33157 -18.63703,3.57255 -24.61863,7.8699 -2.66083,1.91161 -5.0767,3.23682 -5.36861,2.94491 -0.84855,-0.84855 1.45164,-7.50672 3.79425,-10.98292 5.12983,-7.61216 12.68252,-9.65232 40.56102,-10.95657 l 12.96114,-0.60636 3.76005,-11.88939 c 2.06804,-6.53917 4.44495,-12.85706 5.28203,-14.03976 0.83708,-1.1827 5.46276,-3.99191 10.27928,-6.24268 13.6006,-6.35559 21.17876,-11.97376 25.75142,-19.09112 1.08841,-1.6941 1.25615,-1.65286 3.53983,0.87013 1.3185,1.45668 2.39728,3.73252 2.39728,5.05743 0,1.95138 -9.47653,27.58174 -15.74549,42.58547 l -1.39038,3.32765 11.16381,-0.65992 c 51.07977,-3.01942 86.83465,-18.59826 98.79833,-43.04763 4.41058,-9.01361 6.05832,-16.76549 4.4097,-20.74562 -1.78106,-4.29987 -6.92424,-8.27922 -12.97349,-10.03779 -4.64915,-1.35155 -6.42425,-1.41508 -12.69913,-0.4545 -9.03938,1.38377 -19.02145,4.72355 -26.07384,8.72372 -6.5182,3.69718 -16.43855,12.99408 -23.90891,22.40634 -3.04337,3.8345 -5.5334,6.54601 -5.5334,6.02559 0,-1.69312 4.09833,-10.9837 7.19091,-16.30122 8.19187,-14.08544 27.07454,-30.66086 42.3487,-37.17416 8.59923,-3.66694 22.56639,-4.61417 29.42341,-1.99545 10.21085,3.89955 14.86441,11.84875 14.91768,25.48229 0.0298,7.62574 -0.27443,9.14598 -2.97132,14.84796 -1.65249,3.49382 -4.37606,8.34585 -6.05239,10.78231 -4.17086,6.06215 -15.32202,17.66975 -21.61216,22.49681 -20.99153,16.10892 -52.20235,25.98402 -89.75795,28.39939 l -9.99395,0.64275 -8.5031,23.71628 c -4.6767,13.04395 -8.38087,23.86881 -8.23149,24.05524 0.14938,0.18643 1.4642,-0.47414 2.92182,-1.46794 1.45762,-0.9938 5.83606,-3.23061 9.72986,-4.97068 13.72831,-6.13494 33.58428,-16.34391 39.85532,-20.49165 3.48973,-2.30815 7.77052,-5.86208 9.51286,-7.89761 l 3.16788,-3.70095 2.05055,2.77352 c 2.89616,3.91725 2.58583,8.41042 -1.18125,17.10324 -1.9434,4.48456 -2.79012,7.45343 -2.12389,7.44707 0.60936,-0.006 7.89386,-2.12972 16.1878,-4.71977 8.29393,-2.59005 15.72756,-4.70822 16.51917,-4.70705 0.8695,9.5e-4 3.0478,3.27118 5.50232,8.25959 l 4.06302,8.25745 -3.43905,7.88745 c -1.89147,4.33809 -3.24043,8.64696 -2.99767,9.57526 0.36323,1.38901 -1.33485,2.36458 -9.59152,5.51039 -19.45165,7.41111 -25.60813,9.4514 -25.60813,8.48663 0,-0.53612 1.22339,-4.64804 2.71864,-9.1376 6.00132,-18.01925 7.81521,-24.90922 6.81978,-25.90465 -1.14237,-1.14237 -10.22941,0.60292 -12.7143,2.44195 -0.84763,0.62732 -7.34594,15.37066 -14.4407,32.76299 l -12.89957,31.62242 -0.27222,9.43953 c -0.32445,11.25012 1.34291,9.42154 -20.68247,22.6825 -15.97312,9.61702 -31.86051,17.81963 -33.47319,17.28207 -0.5328,-0.17759 1.19912,-3.50776 3.8487,-7.40037 7.92231,-11.639 11.86168,-20.58831 21.13009,-48.00253 4.85243,-14.35258 11.40934,-33.27361 14.57091,-42.04674 3.16157,-8.77313 5.74831,-16.31295 5.74831,-16.75516 0,-0.44221 -0.90647,-0.80402 -2.01438,-0.80402 -4.38402,0 -9.91647,2.49785 -13.823,6.24096 -3.77643,3.61846 -4.08083,4.26171 -3.80904,8.04943 l 0.29539,4.11669 4.24779,0.5128 4.24778,0.5128 -4.07122,1.1915 c -4.77137,1.39642 -10.18369,1.69944 -13.1041,0.73368 -1.95139,-0.64532 -2.32066,0.0868 -6.33934,12.56707 -5.19683,16.13917 -8.88951,29.76485 -9.09714,33.5677 -0.30952,5.66906 -0.0949,6.13569 2.82158,6.13569 4.72734,0 3.94638,1.35813 -2.61,4.53892 -7.17471,3.48076 -17.55544,10.8878 -37.61216,26.83766 -14.59631,11.60753 -22.23662,16.21861 -32.32641,19.50961 -8.89156,2.90017 -9.77761,2.42435 -2.91358,-1.56466 z"
       style="fill:#ffffff;fill-opacity:1;stroke-width:0.9439528" /><path
       inkscape:connector-curvature="0"
       id="path136"
       d="m 479.04204,604.94632 c 1.60479,-1.75398 5.28606,-6.26669 8.18058,-10.02824 6.5359,-8.49367 8.68026,-14.66239 14.92315,-42.92962 9.61314,-43.52744 16.28277,-49.03009 68.37375,-56.41041 14.23238,-2.01646 33.43252,-6.08167 36.65902,-7.76174 2.97993,-1.55169 2.76799,-0.19393 -1.01091,6.47637 -4.98486,8.79901 -12.54176,25.30313 -16.67762,36.42361 -4.65693,12.52149 -7.15656,23.48622 -7.16446,31.4272 l -0.007,6.63991 -4.95575,4.83349 c -17.24249,16.81707 -58.46414,32.4652 -89.43953,33.9521 l -11.79941,0.56639 z m 51.80232,-14.03203 c 9.0339,-3.87238 18.30865,-17.03498 21.29317,-30.21898 2.94557,-13.0119 14.26633,-49.61711 16.55011,-53.51409 l 2.53779,-4.3304 -2.71284,0.6329 c -1.49206,0.34809 -5.74773,2.10756 -9.45706,3.90992 -7.91351,3.84518 -16.09405,12.00287 -18.51893,18.46722 -0.85743,2.28579 -4.10944,14.35068 -7.22668,26.81085 -3.11725,12.46018 -6.95837,26.45137 -8.53584,31.09154 -1.57747,4.64016 -2.86813,8.56936 -2.86813,8.73156 0,0.94366 5.19117,0.0258 8.93841,-1.58052 z"
       style="fill:#ffffff;fill-opacity:1;stroke-width:0.9439528" /><path
       inkscape:connector-curvature="0"
       id="path138"
       d="m 560.90469,651.44956 c -7.77011,-2.68496 -12.04223,-6.02612 -14.81192,-11.58417 -4.38681,-8.80317 -3.01885,-18.1271 3.71586,-25.32706 7.91836,-8.46536 18.57992,-12.27455 34.39821,-12.28987 4.93215,-0.005 10.66666,0.5008 12.74336,1.12353 l 3.77581,1.13221 -7.63357,0.61071 c -9.33772,0.74703 -17.07431,4.02093 -22.85044,9.66961 -10.15657,9.93248 -7.65098,23.86039 5.04627,28.05086 9.41002,3.10558 23.14614,-3.32385 28.26998,-13.23224 2.72476,-5.26911 58.31964,-160.98211 66.63445,-186.63325 1.71916,-5.30355 2.85216,-9.91639 2.5178,-10.25076 -1.04268,-1.04267 -29.88461,19.4839 -33.79649,24.0527 -7.47382,8.72888 -11.85766,20.03449 -9.4865,24.46504 1.30572,2.43975 6.99676,3.65522 10.65287,2.27519 4.13354,-1.56023 3.32141,0.43938 -2.44809,6.02757 -5.37856,5.20955 -9.44593,6.95241 -16.24659,6.96163 -9.06889,0.0123 -12.55371,-10.78738 -6.98977,-21.66175 5.64236,-11.02763 15.85347,-19.32172 57.59852,-46.78502 14.79646,-9.73432 37.9469,-25.04756 51.44542,-34.02942 21.96644,-14.61638 29.35967,-19.034 30.29298,-18.1007 0.16314,0.16315 -0.41732,2.28204 -1.28992,4.70864 -1.58096,4.39647 -1.57711,4.43127 1.09345,9.87728 1.474,3.00589 5.14103,9.11988 8.14896,13.58663 6.5062,9.6617 8.85481,14.10533 10.30851,19.50392 1.01416,3.76629 0.90937,4.26459 -1.68622,8.01829 -4.71704,6.82172 -28.78412,32.11567 -37.08757,38.97818 -7.83727,6.47722 -9.26601,7.87163 -9.29376,9.07044 -0.008,0.34341 3.70236,3.58991 8.24514,7.21448 10.59143,8.45063 18.67863,16.95383 21.01006,22.09078 2.63184,5.79887 2.42624,13.27644 -0.59653,21.69554 -1.36253,3.79496 -6.92634,16.24505 -12.36401,27.66688 -11.52718,24.21279 -13.10506,28.01252 -14.96761,36.04367 -1.22957,5.30179 -1.22366,6.28387 0.0527,8.75205 0.79072,1.52908 1.43767,2.99438 1.43767,3.25623 0,0.54197 -2.46076,0.94856 -15.10325,2.49549 -4.93215,0.60349 -14.84989,2.56831 -22.03942,4.36626 -7.18954,1.79796 -13.32233,3.01854 -13.62845,2.71243 -0.30611,-0.3061 1.17783,-2.35297 3.29765,-4.54858 2.11981,-2.19559 4.7905,-5.86333 5.93486,-8.15052 4.96674,-9.9268 26.69502,-58.48486 28.51206,-63.71834 5.04653,-14.53519 0.68428,-23.40677 -17.4705,-35.53007 -8.08877,-5.40147 -9.09968,-5.1418 -12.13281,3.11652 -3.4335,9.34842 -14.91034,39.76321 -21.28093,56.3966 -2.88323,7.52803 -8.20502,22.38583 -11.82621,33.01735 -6.66816,19.57725 -7.08039,21.97131 -4.96962,28.86192 0.5349,1.7462 -1.07265,2.64735 -16.22298,9.09432 -9.24917,3.93584 -20.6397,8.8512 -25.31227,10.92301 -16.77884,7.43975 -33.01214,9.68344 -43.59713,6.02579 z M 705.71464,481.06803 c 14.86121,-9.76878 21.28942,-16.38776 26.88776,-27.68569 3.82353,-7.7162 4.05281,-8.63686 4.05281,-16.27368 0,-7.14959 -0.30603,-8.61538 -2.62096,-12.55345 -2.68953,-4.57535 -8.66666,-8.94814 -12.90577,-9.4417 -2.01909,-0.23508 -2.82566,1.08759 -8.76434,14.37236 -5.49755,12.29797 -21.49064,56.72045 -21.49064,59.69248 0,1.44503 1.80634,0.45791 14.84114,-8.11032 z"
       style="fill:#ffffff;fill-opacity:1;stroke-width:0.9439528" /><path
       inkscape:connector-curvature="0"
       id="path140"
       d="m 740.33119,598.07921 c 7.16723,-8.97587 8.37233,-11.06325 10.84524,-18.78517 1.53012,-4.77797 4.32036,-15.90846 6.20052,-24.73442 4.32501,-20.30265 5.67588,-25.01206 9.14698,-31.88827 8.07828,-16.00298 19.01782,-20.97879 59.5019,-27.06422 16.47485,-2.47644 31.86149,-5.77026 37.82702,-8.09764 2.34672,-0.91555 2.11978,-0.15704 -2.13027,7.12006 -2.08021,3.5618 -6.11482,11.6323 -8.96583,17.93445 -9.73005,21.50837 -14.60859,38.07479 -14.61999,49.6463 l -0.007,6.70673 -5.07664,4.80128 c -10.57445,10.00087 -26.01385,18.24921 -47.22315,25.22847 -16.57831,5.45536 -28.8106,7.95192 -42.40119,8.65389 l -11.16117,0.5765 z m 47.48524,-7.78674 c 5.22022,-2.45531 11.71652,-9.54012 15.15845,-16.53169 1.65089,-3.35342 4.48796,-11.68 6.30462,-18.50351 5.98441,-22.47798 12.79243,-43.93483 15.29491,-48.20497 l 2.46223,-4.20148 -2.71284,0.6549 c -9.6845,2.33794 -21.71062,10.98539 -26.32207,18.92703 -1.27313,2.19253 -5.06108,14.91941 -8.92809,29.99689 -3.6942,14.40372 -7.76068,28.96209 -9.03661,32.35193 -1.27593,3.38983 -2.31987,6.63399 -2.31987,7.20924 0,1.39676 5.47704,0.47571 10.09927,-1.69834 z"
       style="fill:#ffffff;fill-opacity:1;stroke-width:0.9439528" /><path
       inkscape:connector-curvature="0"
       id="path142"
       d="m 807.25005,621.9528 c 11.13481,-6.20861 23.30402,-19.66236 28.62361,-31.64504 4.37213,-9.84845 7.7362,-19.47206 32.57882,-93.1982 13.44609,-39.90432 23.91184,-72.35557 23.25723,-72.11389 -0.6546,0.24167 -3.31408,1.14006 -5.90995,1.99642 -8.99629,2.96779 -18.40708,11.97672 -18.40708,17.62104 0,2.94868 1.18016,4.12585 5.19174,5.17858 l 2.83186,0.74314 -3.77582,1.20238 c -9.25324,2.94662 -15.57522,0.93079 -15.57522,-4.96632 0,-9.07314 8.47026,-15.44261 36.81416,-27.68353 23.70763,-10.23865 34.51396,-16.74252 37.04393,-22.29519 1.25892,-2.76305 2.0082,-2.79109 4.45322,-0.16667 2.76988,2.97311 2.43697,5.75915 -2.32311,19.44183 -2.33628,6.71557 -4.24778,12.43101 -4.24778,12.70098 0,0.8319 43.11848,-18.69279 48.72898,-22.06521 2.906,-1.74677 7.10716,-5.19365 9.33596,-7.65972 2.2288,-2.46608 4.2771,-4.48378 4.5518,-4.48378 0.2747,0 1.3766,1.23172 2.4485,2.73716 l 1.949,2.73715 -2.3479,8.10218 c -1.2913,4.45621 -6.5868,18.92661 -11.76766,32.15645 -19.58002,49.99933 -40.22905,111.49674 -42.01247,125.12252 -0.68257,5.21499 0.0229,6.36595 4.14773,6.76686 3.13921,0.30512 3.00375,0.43934 -5.5298,5.47859 -4.81132,2.8412 -17.94456,12.10692 -29.18499,20.59049 -21.23523,16.02703 -36.88155,25.14686 -45.04908,26.25791 l -3.70665,0.50422 5.66371,-3.08844 c 3.3712,-1.83833 9.16899,-6.58759 14.32357,-11.73316 13.62562,-13.60179 12.83499,-11.67551 49.34727,-120.22879 11.95005,-35.52827 21.59366,-64.73058 21.43024,-64.894 -0.47896,-0.47896 -9.37052,2.70478 -11.94473,4.27697 -8.383,5.11987 -13.21534,10.80697 -13.21534,15.55291 0,2.66877 1.26736,3.86322 5.19174,4.89307 l 2.83186,0.74314 -3.77582,1.20238 c -2.07669,0.66131 -5.48811,1.23502 -7.58093,1.27492 l -3.80512,0.0725 -3.60031,9.67552 c -13.63292,36.63724 -29.23794,83.73288 -32.18869,97.14482 -2.2181,10.08186 -1.88207,11.5313 2.80927,12.11772 l 3.77581,0.47197 -5.66371,3.20398 c -9.06144,5.12608 -18.8354,11.89992 -33.66284,23.33003 -7.6119,5.86782 -16.29844,12.24154 -19.30341,14.16379 -7.49097,4.79192 -19.87441,10.46717 -24.43788,11.19974 l -3.77581,0.60612 z"
       style="fill:#ffffff;fill-opacity:1;stroke-width:0.9439528" /><path
       inkscape:connector-curvature="0"
       id="path144"
       d="m 972.83394,611.10264 c -0.6829,-6.61722 -9.2466,-24.19812 -15.66944,-32.16876 l -4.51701,-5.60556 2.60934,-3.12558 c 5.63006,-6.7439 19.88271,-43.11133 21.19901,-54.09208 0.9817,-8.18895 0.2058,-10.14551 -4.0664,-10.25427 -2.5481,-0.0649 4.6996,-2.80765 26.21266,-9.91982 36.302,-12.00136 52.2759,-16.76157 52.6347,-15.68512 0.1495,0.4485 2.2462,4.13316 4.6594,8.18812 4.3593,7.32515 4.3801,7.40073 3.2245,11.7316 -0.6397,2.39742 -2.6514,7.65841 -4.4705,11.69107 -4.6061,10.21097 -5.852,17.34557 -3.761,21.53706 1.4346,2.87574 1.4476,3.30216 0.13,4.26564 -1.366,0.99884 -6.1993,3.09012 -42.0626,18.19976 -15.5225,6.53979 -17.9061,7.94661 -17.9061,10.56818 0,3.4729 9.2026,25.5156 11.1567,26.7233 1.2355,0.76362 17.3906,-2.78475 21.0153,-4.61592 7.6826,-3.88109 11.2498,-9.22683 11.2498,-16.8587 0,-4.59719 -0.3141,-5.41902 -2.9043,-7.5985 -1.5974,-1.34409 -3.8274,-2.4608 -4.9558,-2.48159 -1.8549,-0.0342 -1.7969,-0.17577 0.6053,-1.47796 4.5798,-2.48261 14.3897,-4.11085 18.2858,-3.03507 4.4982,1.24201 8.7624,5.53761 8.8965,8.96199 0.3051,7.79152 -1.1863,11.03489 -8.241,17.9225 -8.0721,7.88085 -15.7424,11.06727 -36.9123,15.33419 -19.7025,3.97113 -22.7379,5.21465 -31.11616,12.74747 l -4.7567,4.27673 z m 30.74566,-59.23156 c 2.7137,-1.75489 5.8277,-4.20417 6.9201,-5.44283 2.5788,-2.92407 13.9388,-31.23155 16.4012,-40.86918 3.638,-14.23924 2.8406,-15.08853 -10.3267,-10.99779 -5.2121,1.61928 -9.4765,3.16627 -9.4765,3.43775 0,0.27148 1.2743,0.93784 2.8318,1.4808 1.5575,0.54295 2.8319,1.49519 2.8319,2.11608 0,0.62089 -4.2478,12.77315 -9.4396,27.00501 -5.1917,14.23186 -9.4395,26.41515 -9.4395,27.07398 0,1.61903 3.3337,0.31138 9.6973,-3.80382 z"
       style="fill:#ffffff;fill-opacity:1;stroke-width:0.9439528" /><path
       inkscape:connector-curvature="0"
       id="path146"
       d="m 1046.8884,612.37673 c 8.0609,-12.19065 11.0833,-19.18966 21.0945,-48.84956 4.8191,-14.27728 11.1444,-32.61314 14.0563,-40.74633 2.912,-8.1332 5.2944,-15.30418 5.2944,-15.9355 0,-1.86155 -7.0176,-0.44767 -11.8582,2.38914 -4.7353,2.77506 -7.9558,7.19162 -7.9612,10.91806 0,3.28806 1.6418,4.66726 5.6129,4.70127 4.5102,0.0386 2.1315,1.39537 -4.5869,2.61619 -9.4695,1.72074 -13.6664,-2.08969 -9.9344,-9.01961 2.7198,-5.05034 7.0902,-8.04598 21.0353,-14.41816 25.1644,-11.49887 38.9783,-19.65049 44.7738,-26.42123 l 3.3064,-3.86286 2.1297,2.9908 c 3.189,4.47853 2.4928,9.95221 -2.5441,20.00357 -1.6031,3.19895 -1.8909,4.48378 -1.0044,4.48378 0.6835,0 7.997,-2.1239 16.2524,-4.71977 16.1596,-5.08134 19.351,-5.61006 19.351,-3.20588 0,0.83263 1.556,4.4749 3.4577,8.09393 l 3.4577,6.58005 -3.1473,7.2453 c -1.7311,3.98492 -3.1367,8.39181 -3.1237,9.7931 0.014,1.47391 -0.6144,2.80323 -1.4903,3.15382 -2.6888,1.07626 -16.3789,6.17673 -25.3146,9.43134 l -8.6973,3.16782 0.5553,-3.01469 c 0.3054,-1.65809 1.5186,-5.56337 2.6959,-8.67842 4.5292,-11.9837 7.4303,-23.13791 6.3096,-24.25867 -1.2403,-1.24031 -10.2366,0.41928 -12.7449,2.35114 -0.8146,0.62732 -7.3177,15.58305 -14.4514,33.23497 l -12.9705,32.09439 -0.2112,8.96756 -0.2113,8.96755 -4.107,2.98107 c -11.072,8.03661 -46.2205,27.69739 -49.5159,27.69739 -0.7563,0 1.0857,-3.58061 4.4917,-8.73156 z"
       style="fill:#ffffff;fill-opacity:1;stroke-width:0.9439528" /></g></g></svg>